<?xml version="1.0"?><svg width="533.3333333333333" height="533.3333333333333" xmlns="http://www.w3.org/2000/svg">

 <g>
  <title>Layer 1</title>
  <path fill="none" fill-rule="evenodd" stroke="#bf0000" stroke-width="37.1167" id="path566" d="m478.324341,251.239853a228.090302,226.615158 0 1 0 -456.180643,0a228.090302,226.615158 0 1 0 456.180643,0l-228.090347,0l228.090347,0z"/>
  <path fill-rule="evenodd" fill="#ffffff" stroke-width="1pt" id="path575" d="m460.610718,251.241714a209.636749,208.900162 0 1 0 -419.273483,0a209.636749,208.900162 0 1 0 419.273483,0l-209.636749,0l209.636749,0z"/>
  <path fill="#ffffff" fill-rule="evenodd" stroke-width="1pt" fill-opacity="0.577778" id="path564" d="m117.569969,339.138489c0,-1.817993 -11.812996,-66.341003 0,-91.786987c21.810997,-39.078003 31.806999,-74.518997 33.624992,-104.51001c0.908997,0.908997 1.818008,48.165009 -1.817993,53.618011c-10.904999,20.901993 -21.809998,44.530991 -29.079994,67.25c0,44.529999 -1.818001,79.063995 -2.727005,75.428986z"/>
  <path fill="none" fill-rule="evenodd" stroke="#bf0000" stroke-width="37.5" id="path567" d="m112.20079,91.0597l292.310989,307.074516"/>
 </g>
</svg>